<svg clip-rule="evenodd" fill-rule="evenodd" stroke-linejoin="round" stroke-miterlimit="1.41421" viewBox="0 0 560 400" xmlns="http://www.w3.org/2000/svg"><g transform="matrix(.59976 0 0 .59976 130.12 49.97)"><path d="m249.9 500.2c138.1 0 250.1-112 250.1-250.1s-112-250-250.1-250-250.1 111.9-250.1 250.1c0 138.1 112 250 250.1 250z" fill="#070a0e" fill-rule="nonzero"/><path d="m144.3 334c-7.5-4.6-12.1-12.7-12.1-21.5v-48.9c0-1.9.5-3.7 1.4-5.3 2.9-5 9.4-6.7 14.4-3.8l110.3 64.3c6.4 3.8 10.4 10.7 10.4 18.1v50.6c0 2.3-.6 4.6-1.8 6.6-3.6 5.9-11.4 7.8-17.3 4.2zm164.4-92.8c6.4 3.8 10.4 10.7 10.4 18.1v102.7c0 3-1.6 5.8-4.3 7.3l-24.1 13.7c-.3.2-.6.3-1 .4v-57c0-7.4-3.9-14.2-10.2-18l-96.8-57.9v-64.5c0-1.9.5-3.7 1.4-5.3 2.9-5 9.4-6.7 14.4-3.8zm48.2-75.8c6.5 3.7 10.5 10.7 10.5 18.2v150c0 3.1-1.7 5.9-4.4 7.4l-22.9 12.4v-104.5c0-7.4-3.9-14.2-10.2-18l-99-59.4v-61.1c0-1.9.5-3.7 1.4-5.3 2.9-5 9.4-6.7 14.4-3.8z" fill="#00d395"/></g></svg>