<?xml version="1.0" encoding="UTF-8"?>
<svg width="27px" height="26px" viewBox="0 0 27 26" version="1.1" xmlns="http://www.w3.org/2000/svg" xmlns:xlink="http://www.w3.org/1999/xlink">
    <!-- Generator: sketchtool 51.2 (57519) - http://www.bohemiancoding.com/sketch -->
    <title>3DF12ABA-5552-4071-A150-0B56E381471A</title>
    <desc>Created with sketchtool.</desc>
    <defs></defs>
    <g id="Profile" stroke="none" stroke-width="1" fill="none" fill-rule="evenodd">
        <g id="Profile-Menus" transform="translate(-381.000000, -394.000000)">
            <g id="Group" transform="translate(374.000000, 387.000000)">
                <g id="MM-Logo" transform="translate(7.800000, 7.800000)">
                    <polygon id="Path-18" fill="#DFCEC3" transform="translate(16.917372, 21.843338) scale(-1, 1) translate(-16.917372, -21.843338) " points="14.4080185 22.2939601 19.4267253 19.6140263 19.0358644 21.820424 18.9390227 24.0726499 15.8217298 23.039494"></polygon>
                    <polygon id="Path-18" fill="#DFCEC3" points="7.06495482 22.4267007 11.7847504 19.2286375 11.4388668 21.820424 11.2810701 24.0946813 8.52326867 23.3313681"></polygon>
                    <g id="Group-9">
                        <g id="metamask-recreated" transform="translate(7.201792, 0.000000)">
                            <polygon id="Path-16" fill="#CDBDB2" points="0.302648315 22.6979557 3.70744065 23.6559863 3.70744065 22.403177 3.98538288 22.1083984 5.9309785 22.1083984 5.9309785 23.5822916 5.9309785 24.6140169 3.84641176 24.6140169 1.27544612 23.4349023"></polygon>
                            <polygon id="Path-16-Copy" fill="#CDBDB2" transform="translate(8.640915, 23.361208) scale(-1, 1) translate(-8.640915, -23.361208) " points="5.86149294 22.6979557 9.19679971 23.6559863 9.19679971 22.403177 9.47474194 22.1083984 11.4203376 22.1083984 11.4203376 23.5822916 11.4203376 24.6140169 9.33577083 24.6140169 6.76480519 23.4349023"></polygon>
                            <polygon id="Path-17" fill="#171717" points="3.98538288 19.9712532 3.70744065 22.403177 4.05486844 22.1083984 7.66811744 22.1083984 8.08503079 22.403177 7.80708856 19.9712532 7.2512041 19.6027799 4.47178178 19.6764746"></polygon>
                            <polygon id="Path-20" fill="#F8911E" points="2.10927282 3.53734374 3.7769262 7.66424477 4.54126734 19.6764746 7.2512041 19.6764746 8.08503079 7.66424477 9.61371306 3.53734374"></polygon>
                            <g id="face/left-copy" transform="translate(12.993232, 12.498614) scale(-1, 1) translate(-12.993232, -12.498614) translate(7.061686, 0.000000)">
                                <polygon id="Path-13" fill="#D46C17" points="4.61529764 18.0563541 8.74735865 17.8053182 7.50444024 22.6979557"></polygon>
                                <polygon id="Path-15" fill="#F8911D" points="2.01508118 12.6017871 0.0694855578 18.5710546 4.9334746 18.276276 8.06032471 18.1341712 8.06032471 15.6969628 7.92135359 10.3909472 7.22649801 10.9805045"></polygon>
                                <polygon id="Path-8" fill="#D46D18" points="5.69781574 13.265039 11.3956315 13.4124283 10.7702615 16.5076041 8.06032471 15.7706575"></polygon>
                                <polygon id="Path-9" fill="#E88123" points="5.69906224 13.2643459 8.06032471 15.6969628 8.06032471 18.055192"></polygon>
                                <polygon id="Path-10" fill="#F8911E" points="7.92590901 15.6968874 10.839747 16.5076041 11.7430593 19.6764746 10.8954888 20.1890469 8.08340901 18.5405103"></polygon>
                                <polygon id="Path-11" fill="#E8821E" points="8.06032471 18.1288867 7.50444024 22.6979557 11.1176892 20.0449479"></polygon>
                                <polygon id="Path-12" fill="#E88023" points="11.3956315 13.4124283 11.7430593 19.6764746 10.7007759 16.4707568"></polygon>
                                <polygon id="Path-14" fill="#E8811E" points="1.59816783 24.6877115 7.51041872 22.6935341 4.78543248 18.2829097 0.0688330244 18.5674907"></polygon>
                                <polygon id="Path-7" fill="#E8821E" points="10.9787181 7.66424477 7.99083915 10.3172526 5.69781574 13.265039 11.3956315 13.486123"></polygon>
                                <polygon id="Path-19-Copy" fill="#393939" transform="translate(9.276322, 15.586421) scale(-1, 1) translate(-9.276322, -15.586421) " points="8.68569473 14.7389323 7.92135359 16.4339095 10.6312903 15.6969628"></polygon>
                                <polygon id="Path-21" fill="#E88F35" points="1.52868227 0.0736946613 10.9787181 7.66424477 9.3805503 3.53734374"></polygon>
                                <path d="M1.52868227,0.0736946613 L0.277942231,4.12690103 L0.972797809,8.54858071 L0.486398905,8.84335935 L1.18125448,9.5066113 L0.62537002,10.0224739 L1.38971116,10.7594205 L0.903312251,11.2015885 L2.01508118,12.6754817 L7.22649801,10.9805045 C9.7743018,8.81879446 11.0250418,7.71337455 10.9787181,7.66424477 C10.9323944,7.615115 7.78238247,5.08493163 1.52868227,0.0736946613 Z" id="Path-22" fill="#814717"></path>
                            </g>
                        </g>
                        <g id="face/left-copy">
                            <polygon id="Path-13" fill="#D46C17" points="4.61529764 18.0563541 8.74735865 17.8053182 7.50444024 22.6979557"></polygon>
                            <polygon id="Path-15" fill="#F8911D" points="2.01508118 12.6017871 0.0694855578 18.5710546 4.9334746 18.276276 8.06032471 18.1341712 8.06032471 15.6969628 7.92135359 10.3909472 7.22649801 10.9805045"></polygon>
                            <polygon id="Path-8" fill="#D46D18" points="5.69781574 13.265039 11.3956315 13.4124283 10.7702615 16.5076041 8.06032471 15.7706575"></polygon>
                            <polygon id="Path-9" fill="#E88123" points="5.69906224 13.2643459 8.06032471 15.6969628 8.06032471 18.055192"></polygon>
                            <polygon id="Path-10" fill="#F8911E" points="7.92590901 15.6968874 10.839747 16.5076041 11.7430593 19.6764746 10.8954888 20.1890469 8.08340901 18.5405103"></polygon>
                            <polygon id="Path-11" fill="#E8821E" points="8.06032471 18.1288867 7.50444024 22.6979557 11.1176892 20.0449479"></polygon>
                            <polygon id="Path-12" fill="#E88023" points="11.3956315 13.4124283 11.7430593 19.6764746 10.7007759 16.4707568"></polygon>
                            <polygon id="Path-14" fill="#E8811E" points="1.59816783 24.6877115 7.51041872 22.6935341 4.78543248 18.2829097 0.0688330244 18.5674907"></polygon>
                            <polygon id="Path-7" fill="#E8821E" points="10.9787181 7.66424477 7.99083915 10.3172526 5.69781574 13.265039 11.3956315 13.486123"></polygon>
                            <polygon id="Path-19-Copy" fill="#393939" transform="translate(9.276322, 15.586421) scale(-1, 1) translate(-9.276322, -15.586421) " points="8.68569473 14.7389323 7.92135359 16.4339095 10.6312903 15.6969628"></polygon>
                            <polygon id="Path-21" fill="#E88F35" points="1.52868227 0.0736946613 10.9787181 7.66424477 9.3805503 3.53734374"></polygon>
                            <path d="M1.52868227,0.0736946613 L0.277942231,4.12690103 L0.972797809,8.54858071 L0.486398905,8.84335935 L1.18125448,9.5066113 L0.62537002,10.0224739 L1.38971116,10.7594205 L0.903312251,11.2015885 L2.01508118,12.6754817 L7.22649801,10.9805045 C9.7743018,8.81879446 11.0250418,7.71337455 10.9787181,7.66424477 C10.9323944,7.615115 7.78238247,5.08493163 1.52868227,0.0736946613 Z" id="Path-22" fill="#814717"></path>
                        </g>
                    </g>
                </g>
            </g>
        </g>
    </g>
</svg>